<?xml version="1.0" standalone="no"?>
<!DOCTYPE svg PUBLIC "-//W3C//DTD SVG 20010904//EN"
 "http://www.w3.org/TR/2001/REC-SVG-20010904/DTD/svg10.dtd">
<svg version="1.0" xmlns="http://www.w3.org/2000/svg"
 width="211.000000pt" height="211.000000pt" viewBox="0 0 211.000000 211.000000"
 preserveAspectRatio="xMidYMid meet">
<metadata>
Created by potrace 1.11, written by Peter Selinger 2001-2013
</metadata>
<g transform="translate(0.000000,211.000000) scale(0.100000,-0.100000)"
fill="#000000" stroke="none">
<path d="M960 2045 c-74 -20 -132 -55 -193 -117 l-58 -59 -91 50 c-50 28 -92
51 -93 51 -1 0 -2 -48 -1 -107 0 -86 -2 -107 -14 -108 -76 -12 -98 -18 -145
-41 -101 -47 -184 -152 -214 -269 -17 -70 -6 -185 25 -246 7 -14 9 -29 6 -35
-7 -9 -74 -48 -140 -81 -18 -9 -31 -21 -29 -27 2 -5 41 -31 88 -57 l86 -48
-23 -67 c-57 -171 8 -359 158 -455 47 -31 162 -72 172 -61 3 2 11 0 18 -6 9
-7 13 -42 13 -116 l-1 -105 56 31 c30 18 73 43 94 56 l40 25 18 -24 c95 -121
207 -175 347 -167 120 7 237 71 303 166 15 22 18 23 40 9 49 -32 114 -68 131
-74 9 -3 17 -10 17 -15 0 -5 4 -6 10 -3 5 3 9 50 9 103 -1 127 -2 121 18 118
25 -4 105 18 157 43 49 24 117 87 151 141 60 95 75 235 36 344 -12 33 -20 60
-19 61 2 1 31 18 66 38 35 20 68 37 73 37 5 0 9 5 9 10 0 6 7 10 16 10 23 0
10 13 -38 38 -133 70 -134 71 -103 152 16 41 23 159 12 200 -16 62 -24 81 -52
125 -18 28 -46 64 -63 81 -57 57 -175 108 -244 106 -19 -1 -19 -4 -20 151 0
37 -4 67 -7 67 -4 0 -16 -7 -28 -15 -12 -9 -52 -32 -88 -51 l-66 -36 -35 40
c-104 122 -261 175 -404 137z"/>
</g>
</svg>
