<svg id="Layer_4_copy" data-name="Layer 4 copy" xmlns="http://www.w3.org/2000/svg" viewBox="0 0 3191.87 886.93"><defs><style>.cls-1{fill:#fff;}</style></defs><title>strapp</title><path class="cls-1" d="M3150.73,581.07H2748.3l83.28-474H3234.1Zm-388.14-12h378.07l79.15-450H2841.66Zm281.27-120H2901.6l37.23-211.67H3081.1Zm-128-12h117.9l33-187.67H2948.9Z" transform="translate(-42.23 -56.33)"/><path class="cls-1" d="M2760.48,581.07H2618.22l60.44-343.67h142.27Zm-128-12h117.9l56.22-319.67h-117.9Z" transform="translate(-42.23 -56.33)"/><path class="cls-1" d="M2818.44,251.07H2676.26l25.24-144h142.27Zm-127.89-12h117.82l21.11-120h-117.9Z" transform="translate(-42.23 -56.33)"/><path class="cls-1" d="M2630.4,581.07H2488.22l25.24-144h142.27Zm-127.89-12h117.82l21.11-120h-117.9Z" transform="translate(-42.23 -56.33)"/><path class="cls-1" d="M2124.13,943.26H1982l131.2-746L2454,56.33h138.33l-83.06,474L2172.57,669.53Zm-127.88-12h117.82L2161.9,661l336.72-139.24,79.46-453.38H2456.41L2123.83,205.86Zm187.68-397.21,46.21-262.74,209.67-86.7L2393.6,447.35Zm56.89-254.17-41.28,234.73,183.39-75.83,41.28-234.73Z" transform="translate(-42.23 -56.33)"/><path class="cls-1" d="M1681.52,943.26H1539.34l131.2-746,340.87-141h138.33l-83.06,474L1730,669.53Zm-127.88-12h117.82L1719.29,661,2056,521.72l79.46-453.38H2013.8L1681.22,205.86Zm187.68-397.21,46.21-262.74,209.67-86.7L1951,447.35Zm56.89-254.17-41.28,234.73,183.39-75.83,41.28-234.73Z" transform="translate(-42.23 -56.33)"/><path d="M2841.66,119.07l-79.07,450h378.07l79.15-450H2841.66Zm202.21,330H2901.6l37.23-211.67H3081.1Z" transform="translate(-42.23 -56.33)"/><polygon points="2646.51 193.06 2590.28 512.73 2708.18 512.73 2764.4 193.06 2646.51 193.06"/><polygon points="2669.35 62.73 2648.32 182.73 2766.14 182.73 2787.24 62.73 2669.35 62.73"/><polygon points="2481.31 392.73 2460.28 512.73 2578.1 512.73 2599.2 392.73 2481.31 392.73"/><path d="M2498.62,521.72l79.46-453.38H2456.41L2123.83,205.86l-127.58,725.4h117.82L2161.9,661Zm-268.49-250.4,209.67-86.7L2393.6,447.35l-209.67,86.7Z" transform="translate(-42.23 -56.33)"/><path d="M2056,521.72l79.46-453.38H2013.8L1681.22,205.86l-127.58,725.4h117.82L1719.29,661Zm-268.49-250.4,209.67-86.7L1951,447.35l-209.67,86.7Z" transform="translate(-42.23 -56.33)"/><g id="Layer_5_copy" data-name="Layer 5 copy"><path class="cls-1" d="M2523.54,449.07H1626.27l31.31-179.46H2555Zm-883-12h872.91L2540.7,281.6h-873Z" transform="translate(-42.23 -56.33)"/><polygon points="1625.44 225.27 1598.32 380.73 2471.23 380.73 2498.47 225.27 1625.44 225.27"/><polygon points="1922.8 207.27 1889.12 398.73 2173.52 398.73 2207.52 207.27 1922.8 207.27"/><polygon class="cls-1" points="1932.87 219.27 1903.42 386.73 2163.79 386.73 2193.24 219.27 1932.87 219.27"/></g><path class="cls-1" d="M1615.23,581.07h-139l34.15-194.17-121.21,0-34.15,194.15H1218.31l-5-2.94,82.85-471.06h213.77l171,100.59Zm-124.67-12h114.59l62.49-355.29-161-94.71H1306.24l-79.15,450H1345l34.15-194.15,145.58,0Zm47.78-271.68H1392.78l10.55-60h83.73l55.87,33.78-0.92,5.46Zm-131.28-12h121.21l1.44-8.17-46-27.81H1413.4Z" transform="translate(-42.23 -56.33)"/><path class="cls-1" d="M1218.31,581.06L988.59,445.91,964.82,581.07H822.55l83.37-474h213.81l170.49,103.07-31.09,176.77H1110.32l134.51,81.32L1225,581.07h-6.68Zm-381.46-12h117.9l25-142.27,235.77,138.71,16-91.26-164.31-99.34h181.78L1277,216.16l-160.59-97.09H916Zm311.25-271.68H1002.53l10.55-60h83.73l55.89,33.79Zm-131.27-12H1138l1.44-8.17-46-27.81h-70.31Z" transform="translate(-42.23 -56.33)"/><path class="cls-1" d="M704.65,581.07H562.38L620.72,249.4H490.63l25-142.33H918.1l-25,142.33H763Zm-128-12h117.9l57.08-324.52V237.4H883l20.81-118.33H525.74L504.93,237.4H635Z" transform="translate(-42.23 -56.33)"/><path class="cls-1" d="M502.82,249.4l25-142.33H125.39L87.92,326.49,266.44,429,265,437.07H67.38L42.23,580H444.59L487.4,360,308.79,257.47l1.42-8.08h192.6ZM474,366.16L434.7,568H56.53l20.93-119H275.1l4.62-26.29L101.16,320.26l34.36-201.19h378L492.74,237.4H300.14l-4.62,26.29Z" transform="translate(-42.23 -56.33)"/><path d="M1506.67,119.07H1306.24l-79.15,450H1345l34.15-194.15,145.58,0-34.15,194.17h114.59l62.49-355.29Zm31.68,178.32H1392.78l10.55-60h83.73l55.87,33.78Z" transform="translate(-42.23 -56.33)"/><path d="M1116.38,119.07H916l-79.15,450h117.9l25-142.27,235.77,138.71,16-91.26-164.31-99.34h181.78L1277,216.16Zm31.71,178.32H1002.53l10.55-60h83.73l55.89,33.79Z" transform="translate(-42.23 -56.33)"/><polygon points="709.43 181.06 840.76 181.06 861.58 62.73 483.51 62.73 462.7 181.06 592.78 181.06 534.45 512.73 652.35 512.73 709.42 188.21 709.43 181.06"/><polygon points="431.75 309.82 392.47 511.71 14.29 511.71 35.22 392.73 232.87 392.73 237.49 366.44 58.93 263.92 93.29 62.73 471.33 62.73 450.51 181.06 257.91 181.06 253.29 207.35 431.75 309.82"/></svg>